<?xml version="1.0" encoding="utf-8"?>
<!-- Generator: Adobe Illustrator 26.0.1, SVG Export Plug-In . SVG Version: 6.00 Build 0)  -->
<svg version="1.1" id="Layer_1" xmlns="http://www.w3.org/2000/svg" xmlns:xlink="http://www.w3.org/1999/xlink" x="0px" y="0px"
	 viewBox="0 0 477 43.2" style="enable-background:new 0 0 477 43.2;" xml:space="preserve">
<style type="text/css">
	.st0{fill:#00569F;}
	.st1{fill:url(#SVGID_1_);}
	.st2{fill:url(#SVGID_00000065776142288594444960000014214940778115764925_);}
	.st3{fill:url(#SVGID_00000168114754265874108200000011961434595511455414_);}
	.st4{fill:url(#SVGID_00000178201633586585752930000013059242204542766261_);}
</style>
<g>
	<g>
		<path class="st0" d="M20.3,8.4h6l7.6,29.2h-6.2l-1.4-5.8H13.7l-3,5.8H4.5L20.3,8.4z M25.1,26.7c-0.5-1.9-0.9-3.8-1.4-5.7
			c-0.5-1.9-0.9-3.8-1.4-5.8l-6,11.5H25.1z"/>
		<path class="st0" d="M37.7,8.4h15.4c1.1,0,2.1,0.1,3.1,0.4c0.9,0.3,1.8,0.7,2.5,1.3c0.7,0.6,1.3,1.4,1.7,2.3
			c0.4,0.9,0.6,2.1,0.6,3.5c0,0.3,0,0.7,0,1c0,0.3-0.1,0.7-0.1,1.1c-0.3,1.9-0.7,3.5-1.4,4.8c-0.7,1.3-1.4,2.3-2.4,3.1
			c-0.9,0.8-1.9,1.3-3.1,1.6c-1.1,0.3-2.3,0.5-3.6,0.5h-9.8l-1.3,9.6h-5.6L37.7,8.4z M51.1,23c0.4,0,0.9-0.1,1.4-0.3
			c0.5-0.2,1-0.5,1.4-1c0.4-0.5,0.8-1.1,1-1.9c0.3-0.8,0.4-1.8,0.4-3c0-1.2-0.3-2.1-0.8-2.6c-0.6-0.5-1.2-0.8-2-0.8h-9.8L41.3,23
			H51.1z"/>
		<path class="st0" d="M63.7,8.4h15.4c1.1,0,2.1,0.1,3.1,0.4c0.9,0.3,1.8,0.7,2.5,1.3c0.7,0.6,1.3,1.4,1.7,2.3
			c0.4,0.9,0.6,2.1,0.6,3.5c0,0.3,0,0.7,0,1c0,0.3-0.1,0.7-0.1,1.1c-0.3,1.9-0.7,3.5-1.4,4.8c-0.7,1.3-1.4,2.3-2.4,3.1
			c-0.9,0.8-1.9,1.3-3.1,1.6c-1.1,0.3-2.3,0.5-3.6,0.5h-9.8l-1.3,9.6h-5.6L63.7,8.4z M77.1,23c0.4,0,0.9-0.1,1.4-0.3
			c0.5-0.2,1-0.5,1.4-1c0.4-0.5,0.8-1.1,1-1.9c0.3-0.8,0.4-1.8,0.4-3c0-1.2-0.3-2.1-0.8-2.6c-0.6-0.5-1.2-0.8-2-0.8h-9.8L67.3,23
			H77.1z"/>
		<path class="st0" d="M89.8,8.4h15.7c1.1,0,2,0.1,3,0.4c0.9,0.2,1.7,0.6,2.4,1.2c0.7,0.5,1.2,1.3,1.6,2.1c0.4,0.9,0.6,1.9,0.6,3.2
			c0,0.6,0,1.2-0.1,1.9c-0.2,1.4-0.5,2.7-1,3.7c-0.4,1-1,1.9-1.6,2.7c-0.7,0.7-1.4,1.3-2.2,1.7c-0.8,0.4-1.7,0.7-2.6,0.9h0.1
			l4.4,11.5h-6.4l-4-11.3h-6.8l-1.5,11.3h-5.6L89.8,8.4z M103.6,21.3c0.4,0,0.8-0.1,1.3-0.3c0.4-0.2,0.8-0.5,1.2-0.9
			c0.4-0.4,0.7-0.9,0.9-1.6c0.2-0.7,0.3-1.5,0.3-2.5c0-1-0.3-1.7-0.8-2.1c-0.5-0.4-1.1-0.6-1.8-0.6H94.6l-1.1,7.9H103.6z"/>
		<path class="st0" d="M112.8,26.8c0-0.6,0-1.2,0.1-1.8c0-0.6,0.1-1.3,0.2-2c0.4-2.8,1.1-5.2,2-7.1c0.9-1.9,2.1-3.5,3.4-4.7
			c1.3-1.2,2.8-2.1,4.5-2.6c1.6-0.5,3.4-0.8,5.2-0.8c1.5,0,3,0.2,4.3,0.6c1.3,0.4,2.5,1.1,3.5,2c1,0.9,1.8,2.1,2.4,3.6
			c0.6,1.5,0.9,3.2,0.9,5.4c0,0.6,0,1.1-0.1,1.8c-0.1,0.6-0.1,1.3-0.2,1.9c-0.4,2.8-1.1,5.2-2,7.1c-1,1.9-2.1,3.5-3.5,4.7
			c-1.3,1.2-2.8,2.1-4.5,2.6c-1.6,0.5-3.3,0.8-5.1,0.8c-1.6,0-3-0.2-4.4-0.6c-1.3-0.4-2.5-1.1-3.5-2c-1-0.9-1.8-2.1-2.3-3.5
			C113.1,30.7,112.8,28.9,112.8,26.8 M118.5,26.1c0,1.4,0.2,2.5,0.5,3.4c0.3,0.9,0.7,1.6,1.3,2.2c0.6,0.5,1.2,0.9,1.9,1.2
			c0.7,0.2,1.6,0.4,2.4,0.4c1,0,2-0.2,2.9-0.5c0.9-0.3,1.8-0.9,2.6-1.6c0.8-0.8,1.5-1.8,2-3.2c0.6-1.3,1-3,1.3-4.9
			c0.1-0.6,0.1-1.1,0.2-1.6c0-0.5,0-1,0-1.4c0-1.4-0.2-2.5-0.5-3.4c-0.3-0.9-0.8-1.7-1.3-2.2c-0.6-0.6-1.2-1-1.9-1.2
			s-1.5-0.4-2.4-0.4c-1,0-2,0.2-2.9,0.5c-0.9,0.3-1.8,0.9-2.6,1.6c-0.8,0.8-1.4,1.8-2,3.2c-0.6,1.3-1,3-1.3,4.9
			C118.5,24.2,118.5,25.2,118.5,26.1"/>
		<path class="st0" d="M139.1,8.4h6.2l5.4,22.4c1.9-3.7,3.9-7.5,5.9-11.2c2-3.7,3.9-7.5,5.8-11.2h6.2l-15.8,29.2h-6L139.1,8.4z"/>
		<path class="st0" d="M164.8,26.9c0-0.6,0-1.2,0.1-1.9c0-0.6,0.1-1.3,0.2-2c0.4-2.7,1-5,1.8-6.8c0.9-1.9,1.9-3.4,3.1-4.5
			c1.2-1.1,2.5-2,4-2.5c1.5-0.5,3-0.8,4.6-0.8h9.9l-0.7,5h-9.2c-0.8,0-1.5,0.1-2.3,0.4c-0.8,0.3-1.4,0.7-2.1,1.2
			c-0.6,0.6-1.2,1.3-1.8,2.2c-0.5,0.9-1,2-1.3,3.3h15.6l-0.7,5h-15.6c0,1.3,0.1,2.4,0.4,3.3c0.3,0.9,0.7,1.6,1.1,2.2
			c0.5,0.6,1,1,1.7,1.2c0.7,0.2,1.4,0.4,2.2,0.4h9.2l-0.7,5h-9.9c-1.4,0-2.6-0.2-3.8-0.6c-1.2-0.4-2.2-1-3.1-1.8
			c-0.9-0.8-1.5-2-2-3.3C165.1,30.5,164.8,28.9,164.8,26.9"/>
		<path class="st0" d="M191.2,8.4h12.9c1.4,0,2.6,0.2,3.8,0.6c1.2,0.4,2.2,1,3.1,1.9c0.9,0.9,1.5,2,2,3.3c0.5,1.4,0.8,3,0.8,5
			c0,0.6,0,1.2-0.1,1.8c0,0.6-0.1,1.3-0.2,2c-0.4,2.7-1,5-1.9,6.8c-0.9,1.9-1.9,3.4-3.1,4.5c-1.2,1.1-2.5,2-4,2.5
			c-1.5,0.5-3,0.8-4.5,0.8h-12.9L191.2,8.4z M200,32.6c0.9,0,1.8-0.2,2.6-0.5c0.8-0.3,1.6-0.8,2.3-1.6c0.7-0.7,1.3-1.7,1.9-2.9
			c0.5-1.2,0.9-2.8,1.2-4.6c0.1-0.6,0.1-1.1,0.2-1.6c0-0.5,0-1,0-1.4c0-1.3-0.1-2.3-0.4-3.2c-0.3-0.8-0.7-1.5-1.1-2
			c-0.5-0.5-1.1-0.9-1.7-1.1c-0.7-0.2-1.4-0.3-2.2-0.3h-6.6l-2.7,19.2H200z"/>
		<polygon class="st0" points="302.8,13.4 293.4,13.4 294.1,8.4 318.5,8.4 317.8,13.4 308.4,13.4 305,37.6 299.4,37.6 		"/>
		<path class="st0" d="M315.4,26.8c0-0.6,0-1.2,0.1-1.8c0-0.6,0.1-1.3,0.2-2c0.4-2.8,1.1-5.2,2-7.1c0.9-1.9,2.1-3.5,3.4-4.7
			c1.3-1.2,2.8-2.1,4.5-2.6c1.6-0.5,3.4-0.8,5.2-0.8c1.5,0,3,0.2,4.3,0.6c1.3,0.4,2.5,1.1,3.5,2c1,0.9,1.8,2.1,2.4,3.6
			c0.6,1.5,0.9,3.2,0.9,5.4c0,0.6,0,1.1-0.1,1.8c-0.1,0.6-0.1,1.3-0.2,1.9c-0.4,2.8-1.1,5.2-2,7.1c-1,1.9-2.1,3.5-3.5,4.7
			c-1.3,1.2-2.8,2.1-4.5,2.6c-1.6,0.5-3.3,0.8-5.1,0.8c-1.6,0-3-0.2-4.4-0.6c-1.3-0.4-2.5-1.1-3.5-2c-1-0.9-1.8-2.1-2.3-3.5
			C315.7,30.7,315.4,28.9,315.4,26.8 M321.1,26.1c0,1.4,0.2,2.5,0.5,3.4c0.3,0.9,0.7,1.6,1.3,2.2c0.6,0.5,1.2,0.9,1.9,1.2
			c0.7,0.2,1.6,0.4,2.4,0.4c1,0,2-0.2,2.9-0.5c0.9-0.3,1.8-0.9,2.6-1.6c0.8-0.8,1.5-1.8,2-3.2c0.6-1.3,1-3,1.3-4.9
			c0.1-0.6,0.1-1.1,0.2-1.6c0-0.5,0-1,0-1.4c0-1.4-0.2-2.5-0.5-3.4c-0.3-0.9-0.8-1.7-1.3-2.2c-0.6-0.6-1.2-1-1.9-1.2
			c-0.7-0.2-1.5-0.4-2.4-0.4c-1,0-2,0.2-2.9,0.5c-0.9,0.3-1.8,0.9-2.6,1.6c-0.8,0.8-1.4,1.8-2,3.2c-0.6,1.3-1,3-1.3,4.9
			C321.1,24.2,321.1,25.2,321.1,26.1"/>
		<path class="st0" d="M357.7,8.4h15.4c1.1,0,2.1,0.1,3.1,0.4c0.9,0.3,1.8,0.7,2.5,1.3c0.7,0.6,1.3,1.4,1.7,2.3
			c0.4,0.9,0.6,2.1,0.6,3.5c0,0.3,0,0.7,0,1c0,0.3-0.1,0.7-0.1,1.1c-0.3,1.9-0.7,3.5-1.4,4.8c-0.7,1.3-1.4,2.3-2.4,3.1
			c-0.9,0.8-1.9,1.3-3.1,1.6c-1.1,0.3-2.3,0.5-3.6,0.5h-9.8l-1.3,9.6h-5.6L357.7,8.4z M371.1,23c0.4,0,0.9-0.1,1.4-0.3
			c0.5-0.2,1-0.5,1.4-1c0.4-0.5,0.8-1.1,1-1.9c0.3-0.8,0.4-1.8,0.4-3c0-1.2-0.3-2.1-0.8-2.6c-0.6-0.5-1.2-0.8-2-0.8h-9.8l-1.3,9.6
			H371.1z"/>
		<path class="st0" d="M383.8,8.4h15.7c1.1,0,2,0.1,3,0.4c0.9,0.2,1.7,0.6,2.4,1.2c0.7,0.5,1.2,1.3,1.6,2.1c0.4,0.9,0.6,1.9,0.6,3.2
			c0,0.6,0,1.2-0.1,1.9c-0.2,1.4-0.5,2.7-1,3.7c-0.4,1-1,1.9-1.6,2.7c-0.7,0.7-1.4,1.3-2.2,1.7c-0.8,0.4-1.7,0.7-2.6,0.9h0.1
			l4.4,11.5h-6.4l-4-11.3h-6.8l-1.5,11.3h-5.6L383.8,8.4z M397.7,21.3c0.4,0,0.8-0.1,1.3-0.3c0.4-0.2,0.8-0.5,1.2-0.9
			c0.4-0.4,0.7-0.9,0.9-1.6c0.2-0.7,0.3-1.5,0.3-2.5c0-1-0.3-1.7-0.8-2.1c-0.5-0.4-1.1-0.6-1.8-0.6h-10.1l-1.1,7.9H397.7z"/>
		<polygon class="st0" points="412.4,8.4 418,8.4 413.9,37.6 408.3,37.6 		"/>
		<polygon class="st0" points="422.8,8.4 429.9,8.4 437.2,29 440.1,8.4 445.7,8.4 441.6,37.6 434.5,37.6 427.2,17 424.3,37.6 
			418.8,37.6 		"/>
		<polygon class="st0" points="456.8,13.4 447.4,13.4 448.1,8.4 472.5,8.4 471.8,13.4 462.4,13.4 459,37.6 453.4,37.6 		"/>
	</g>
	<linearGradient id="SVGID_1_" gradientUnits="userSpaceOnUse" x1="229.7683" y1="39.628" x2="229.7683" y2="3.572">
		<stop  offset="0" style="stop-color:#00AEEF"/>
		<stop  offset="1" style="stop-color:#D4EFFC"/>
	</linearGradient>
	<polygon class="st1" points="218,3.6 231.8,21.6 218,39.6 227.7,39.6 241.5,21.6 227.7,3.6 	"/>
	
		<linearGradient id="SVGID_00000065075055749517790460000013270928598383036575_" gradientUnits="userSpaceOnUse" x1="245.2998" y1="39.628" x2="245.2998" y2="3.572">
		<stop  offset="0" style="stop-color:#EC008C"/>
		<stop  offset="1" style="stop-color:#FCDFEB"/>
	</linearGradient>
	<polygon style="fill:url(#SVGID_00000065075055749517790460000013270928598383036575_);" points="233.5,3.6 247.4,21.6 233.5,39.6 
		243.3,39.6 257.1,21.6 243.3,3.6 	"/>
	
		<linearGradient id="SVGID_00000020385004710368339690000017070731870192735902_" gradientUnits="userSpaceOnUse" x1="260.8308" y1="39.628" x2="260.8308" y2="3.572">
		<stop  offset="0" style="stop-color:#FFF200"/>
		<stop  offset="1" style="stop-color:#FFFCDF"/>
	</linearGradient>
	<polygon style="fill:url(#SVGID_00000020385004710368339690000017070731870192735902_);" points="249.1,3.6 262.9,21.6 249.1,39.6 
		258.8,39.6 272.6,21.6 258.8,3.6 	"/>
	
		<linearGradient id="SVGID_00000091734041644965768380000015085977846738181300_" gradientUnits="userSpaceOnUse" x1="276.3618" y1="39.628" x2="276.3618" y2="3.572">
		<stop  offset="0" style="stop-color:#000000"/>
		<stop  offset="1" style="stop-color:#DCDDDE"/>
	</linearGradient>
	<polygon style="fill:url(#SVGID_00000091734041644965768380000015085977846738181300_);" points="264.6,3.6 278.4,21.6 264.6,39.6 
		274.3,39.6 288.1,21.6 274.3,3.6 	"/>
</g>
</svg>
